<svg xmlns="http://www.w3.org/2000/svg" version="1.1" viewBox="0 0 1360.3868 1360.3868" xmlns:svg="http://www.w3.org/2000/svg" width="1360.3868" height="1360.3868"><metadata><rdf:RDF xmlns:rdf="http://www.w3.org/1999/02/22-rdf-syntax-ns#" xmlns:dc="http://purl.org/dc/elements/1.1/"><rdf:Description><dc:creator>RealFaviconGenerator</dc:creator><dc:source>https://realfavicongenerator.net</dc:source></rdf:Description></rdf:RDF></metadata><defs>
		<linearGradient id="grad1" x1="10%" y1="10%" x2="90%" y2="90%">
			<stop offset="10%" stop-color="#0073AA"></stop>
			<stop offset="90%" stop-color="#005075"></stop>
		</linearGradient>
	</defs><rect fill="url('#grad1')" width="1360.087" height="1360.087" x="0" y="0"></rect><path fill="#ffffff" d="m 626.0518,429.7653 c 0,17.8531 -14.4665,32.3197 -32.3197,32.3197 H 337.1368 c -17.8532,0 -32.325,-14.4666 -32.325,-32.3197 V 173.17 c 0,-17.8479 14.4718,-32.325 32.325,-32.325 h 256.5953 c 17.8532,0 32.3197,14.4771 32.3197,32.325 z m 387.2722,-13.4722 c 0,25.291 -15.9711,45.7919 -35.6745,45.7919 h -178.925 c -19.698,0 -35.6744,-20.5009 -35.6744,-45.7919 V 186.6368 c 0,-25.291 15.9764,-45.7972 35.6744,-45.7972 h 178.925 c 19.7034,0 35.6745,20.5062 35.6745,45.7972 z m -654.9739,723.0105 c 0,15.6148 12.1112,28.2737 27.0668,28.2737 h 213.568 c 14.9503,0 27.0669,-12.6589 27.0669,-28.2737 V 635.2469 c 0,-15.6203 -12.1219,-28.2791 -27.0669,-28.2791 h -213.568 c -14.9503,0 -27.0668,12.6589 -27.0668,28.2791 z m 404.7,49.3488 c 0,17.0609 13.2437,30.8948 29.5762,30.8948 h 233.3619 c 16.3379,0 29.5869,-13.8339 29.5869,-30.8948 V 637.8625 c 0,-17.061 -13.249,-30.8895 -29.5869,-30.8895 H 792.6263 c -16.3325,0 -29.5762,13.8285 -29.5762,30.8895 z"></path></svg>